<svg id="Capa_1" data-name="Capa 1" xmlns="http://www.w3.org/2000/svg" viewBox="0 0 100.87 38.74"><defs><style>.cls-1{fill:#ededec;}.cls-2{fill:#fc6060;}</style></defs><path class="cls-1" d="M3.42,13.73H23.76a.4.4,0,0,1,.45.45c0,.13,0,.22-.07.26L10.8,37.58h8.27c1.71,0,3-1,3.73-3,.17-.47.36-1,.57-1.73a.6.6,0,0,1,.45-.45.56.56,0,0,1,.52.51l-.52,5.64H.72A.46.46,0,0,1,.27,38l.07-.12L13.68,14.7H8.42q-3.6.06-4.62,4.8a.62.62,0,0,1-.51.45.54.54,0,0,1-.39-.58Z"/><path class="cls-1" d="M69.41.21A.55.55,0,0,1,70,.15a.58.58,0,0,1,.19.44V31.81q0,4.55,2.24,5.45a8.67,8.67,0,0,0,1.09.32A.63.63,0,0,1,74,38q-.14.45-.45.51H57.94a.66.66,0,0,1-.52-.51.62.62,0,0,1,.52-.45A3.23,3.23,0,0,0,61,34.89a14.83,14.83,0,0,0,.26-3.08V12q0-5.57-2.69-6.41l-.45-.12c-.34-.13-.54-.3-.58-.52a.68.68,0,0,1,.58-.45,18.33,18.33,0,0,0,11-4.1A3.27,3.27,0,0,1,69.41.21Z"/><path class="cls-1" d="M97.71,18.25a11.85,11.85,0,0,0-9.48-4.4,12.36,12.36,0,0,0-7.85,2.89,11.77,11.77,0,0,0-4.47,9.49,12.5,12.5,0,0,0,2.89,7.91,11.82,11.82,0,0,0,9.43,4.4,12.24,12.24,0,0,0,8-2.83,11.84,11.84,0,0,0,4.39-9.48A12.19,12.19,0,0,0,97.71,18.25Zm-6.47,19a2.5,2.5,0,0,1-1.76-.31q-3-1.89-5.08-9.62A42.15,42.15,0,0,1,83.52,23a19.68,19.68,0,0,1-.25-4.2,5.65,5.65,0,0,1,.7-2.64,2.44,2.44,0,0,1,.69-.74,2,2,0,0,1,.44-.21,2.34,2.34,0,0,1,2.06.38q2.9,2,5,9.55a42.15,42.15,0,0,1,.94,4.71Q93.95,36.47,91.24,37.22Z"/><path class="cls-2" d="M31.81,16.51a3.64,3.64,0,0,1,3.49,2.25,4.57,4.57,0,0,1,.34,1.71A3.65,3.65,0,0,1,33.45,24a4.34,4.34,0,0,1-1.64.34,3.55,3.55,0,0,1-3.48-2.19,3.84,3.84,0,0,1,1.77-5.19A5.63,5.63,0,0,1,31.81,16.51Z"/><path class="cls-1" d="M55.69,36.18h-.44a1.32,1.32,0,0,1-.57,0q-2.22-.45-3-5.37l-.94-8.15q-1.52-9.35-13-8.91a11.8,11.8,0,0,0-6.07,1.77l-.18.14a5.19,5.19,0,0,1,.79-.12,3.36,3.36,0,0,1,2.15.7c.29-1,1.15-1.54,2.61-1.54a3.63,3.63,0,0,1,1.27.25c1.81.68,2.9,2.57,3.28,5.69a2.49,2.49,0,0,1,.06.57,2.73,2.73,0,0,1-1.7,3,11.16,11.16,0,0,1-2.65.76c-3.29.55-5.1.86-5.44.95C28.63,26.91,27,29,27,32.26A6.53,6.53,0,0,0,27.58,35q1.83,3.6,8,3.6a11.33,11.33,0,0,0,6.7-2q1.26-.88,1.26-1.14,1.63,3.1,6.32,3.16a11.65,11.65,0,0,0,6-1.58.61.61,0,0,0,.25-.38C56.17,36.35,56,36.18,55.69,36.18Zm-13.52-.63a3.61,3.61,0,0,1-3.92.5c-1.93-.76-2.9-2.31-2.9-4.67a5.35,5.35,0,0,1,1.89-4.11c.25-.21,1.29-.88,3.1-2A4.44,4.44,0,0,0,42,23.86l1.07,9.35A2.42,2.42,0,0,1,42.17,35.55Z"/></svg>